<svg width="113" height="61" viewBox="0 0 113 61" fill="none" xmlns="http://www.w3.org/2000/svg">
<g filter="url(#filter0_d_3_2)">
<path d="M53.3489 1.26C54.4689 1.42 55.2289 1.76 55.6289 2.28C56.0689 2.8 56.2889 3.48 56.2889 4.32C56.2889 7.08 54.8089 8.36 51.8489 8.16L49.7489 7.98C47.3889 7.78 45.0289 7.62 42.6689 7.5C40.3489 7.38 37.9089 7.32 35.3489 7.32H32.6489C32.1689 13.24 31.6689 18.64 31.1489 23.52L41.4689 23.34C42.9489 23.34 43.9289 23.6 44.4089 24.12C44.9289 24.64 45.1889 25.34 45.1889 26.22C45.1889 27.58 44.7889 28.66 43.9889 29.46C43.1889 30.22 42.0489 30.6 40.5689 30.6H30.3089L29.9489 33.18C29.1089 39.78 27.3089 44.48 24.5489 47.28C21.8289 50.08 18.0689 51.48 13.2689 51.48C10.5489 51.48 8.04891 50.9 5.76891 49.74C3.48891 48.54 1.80891 47.1 0.728906 45.42C0.288906 44.74 0.0689062 43.92 0.0689062 42.96C0.0689062 42 0.288906 41.16 0.728906 40.44C1.20891 39.72 1.78891 39.36 2.46891 39.36C2.94891 39.36 3.40891 39.52 3.84891 39.84C4.32891 40.16 4.92891 40.78 5.64891 41.7C7.56891 44.22 9.94891 45.48 12.7889 45.48C15.0689 45.48 16.9689 44.56 18.4889 42.72C20.0489 40.84 21.0489 37.9 21.4889 33.9L21.8489 30.6H18.9689C18.0489 30.6 17.2489 30.34 16.5689 29.82C15.9289 29.3 15.6089 28.56 15.6089 27.6C15.6089 26.36 15.9289 25.42 16.5689 24.78C17.2089 24.1 18.1489 23.76 19.3889 23.76C20.5089 23.76 21.6089 23.74 22.6889 23.7C23.1689 19.3 23.6889 13.96 24.2489 7.68C19.9289 8.08 16.8889 8.78 15.1289 9.78C13.3689 10.78 12.4889 12.26 12.4889 14.22C12.4889 15.58 12.8889 16.88 13.6889 18.12C13.9289 18.48 14.0489 18.84 14.0489 19.2C14.0489 19.92 13.6489 20.56 12.8489 21.12C12.0489 21.64 11.1489 21.9 10.1489 21.9C9.06891 21.9 8.14891 21.58 7.38891 20.94C6.90891 20.54 6.44891 19.72 6.00891 18.48C5.56891 17.24 5.34891 15.86 5.34891 14.34C5.34891 9.38 7.88891 5.78 12.9689 3.54C18.0889 1.3 25.5489 0.179996 35.3489 0.179996C42.1489 0.179996 48.1489 0.539996 53.3489 1.26ZM56.7638 51.3C55.2838 51.3 54.2238 50.98 53.5838 50.34C52.9438 49.66 52.6238 48.4 52.6238 46.56C52.6238 45.32 52.7438 43.82 52.9838 42.06C53.2238 40.3 53.6438 37.64 54.2438 34.08C54.3238 33.6 54.6438 31.66 55.2038 28.26C55.7638 24.82 56.2638 21.22 56.7038 17.46C57.1038 14.26 57.3038 11.86 57.3038 10.26C57.3038 8.46 56.6438 7.56 55.3238 7.56C54.3238 7.56 53.0638 8.1 51.5438 9.18C50.0638 10.22 48.4638 11.9 46.7438 14.22C46.1838 14.98 45.5638 15.36 44.8838 15.36C44.3238 15.36 43.8238 15.1 43.3838 14.58C42.9838 14.02 42.7837 13.4 42.7837 12.72C42.7837 12.04 42.9038 11.4 43.1438 10.8C43.3838 10.16 43.8238 9.4 44.4638 8.52C46.4238 5.84 48.6038 3.78 51.0038 2.34C53.4038 0.859997 55.9238 0.119997 58.5638 0.119997C60.7638 0.119997 62.4038 0.799998 63.4838 2.16C64.6038 3.52 65.1638 5.5 65.1638 8.1C65.1638 10.42 64.8438 13.78 64.2038 18.18C66.2038 12.26 68.7438 7.78 71.8238 4.74C74.9038 1.66 78.5238 0.119997 82.6838 0.119997C85.9638 0.119997 88.4238 1.06 90.0638 2.94C91.7438 4.78 92.5838 7.26 92.5838 10.38C92.5838 12.14 92.3238 14.28 91.8038 16.8L88.1438 33.96C87.7438 35.96 87.5438 37.68 87.5438 39.12C87.5438 40.8 87.9238 42.06 88.6838 42.9C89.4838 43.74 90.5838 44.16 91.9838 44.16C93.3038 44.16 94.5838 43.72 95.8238 42.84C97.1038 41.96 98.6038 40.5 100.324 38.46C100.804 37.9 101.344 37.62 101.944 37.62C102.464 37.62 102.864 37.86 103.144 38.34C103.464 38.82 103.624 39.48 103.624 40.32C103.624 41.88 103.244 43.12 102.484 44.04C100.404 46.56 98.3438 48.4 96.3038 49.56C94.2638 50.72 92.1238 51.3 89.8838 51.3C86.4838 51.3 83.8238 50.3 81.9038 48.3C79.9838 46.26 79.0238 43.54 79.0238 40.14C79.0238 38.82 79.1238 37.38 79.3238 35.82C79.5638 34.26 79.9438 32.28 80.4638 29.88L82.8638 18.9C82.9438 18.54 83.0838 17.9 83.2838 16.98C83.4838 16.06 83.6438 15.2 83.7638 14.4C83.8838 13.56 83.9438 12.74 83.9438 11.94C83.9438 10.66 83.5838 9.64 82.8638 8.88C82.1438 8.12 81.1238 7.74 79.8038 7.74C77.4038 7.74 75.0038 9.02 72.6038 11.58C70.2038 14.14 67.9838 18.28 65.9438 24C63.9038 29.68 62.3038 36.96 61.1438 45.84C60.8638 47.88 60.4438 49.3 59.8838 50.1C59.3638 50.9 58.3238 51.3 56.7638 51.3Z" fill="white"/>
</g>
<defs>
<filter id="filter0_d_3_2" x="0.0689049" y="0.119995" width="112.555" height="60.36" filterUnits="userSpaceOnUse" color-interpolation-filters="sRGB">
<feFlood flood-opacity="0" result="BackgroundImageFix"/>
<feColorMatrix in="SourceAlpha" type="matrix" values="0 0 0 0 0 0 0 0 0 0 0 0 0 0 0 0 0 0 127 0" result="hardAlpha"/>
<feOffset dx="5" dy="5"/>
<feGaussianBlur stdDeviation="2"/>
<feComposite in2="hardAlpha" operator="out"/>
<feColorMatrix type="matrix" values="0 0 0 0 0 0 0 0 0 0 0 0 0 0 0 0 0 0 0.25 0"/>
<feBlend mode="normal" in2="BackgroundImageFix" result="effect1_dropShadow_3_2"/>
<feBlend mode="normal" in="SourceGraphic" in2="effect1_dropShadow_3_2" result="shape"/>
</filter>
</defs>
</svg>
